<svg width="800" height="800" viewBox="0 0 800 800" xmlns="http://www.w3.org/2000/svg">
  <rect x="200.0"      y="100.0"      width="20.0"      height="20.0"     fill="#f8c4ff" />
  <rect x="220.0"      y="100.0"      width="20.0"      height="20.0"     fill="#f8c4ff" />
  <rect x="240.0"      y="100.0"      width="20.0"      height="20.0"     fill="#f8c4ff" />
  <rect x="260.0"      y="100.0"      width="20.0"      height="20.0"     fill="#f8c4ff" />
  <rect x="200.0"      y="120.0"      width="20.0"      height="20.0"     fill="#f8c4ff" />
  <rect x="220.0"      y="120.0"      width="20.0"      height="20.0"     fill="#f8c4ff" />
  <rect x="240.0"      y="120.0"      width="20.0"      height="20.0"     fill="#f8c4ff" />
  <rect x="260.0"      y="120.0"      width="20.0"      height="20.0"     fill="#f8c4ff" />
  <rect x="280.0"      y="120.0"      width="20.0"      height="20.0"     fill="#f8c4ff" />
  <rect x="200.0"      y="140.0"      width="20.0"      height="20.0"     fill="#f19dfc" />
  <rect x="220.0"      y="140.0"      width="20.0"      height="20.0"     fill="#f19dfc" />
  <rect x="240.0"      y="140.0"      width="20.0"      height="20.0"     fill="#f8c4ff" />
  <rect x="260.0"      y="140.0"      width="20.0"      height="20.0"     fill="#f8c4ff" />
  <rect x="280.0"      y="140.0"      width="20.0"      height="20.0"     fill="#f8c4ff" />
  <rect x="200.0"      y="160.0"      width="20.0"      height="20.0"     fill="#f19dfc" />
  <rect x="220.0"      y="160.0"      width="20.0"      height="20.0"     fill="#f19dfc" />
  <rect x="240.0"      y="160.0"      width="20.0"      height="20.0"     fill="#f8c4ff" />
  <rect x="260.0"      y="160.0"      width="20.0"      height="20.0"     fill="#f8c4ff" />
  <rect x="280.0"      y="160.0"      width="20.0"      height="20.0"     fill="#f8c4ff" />
  <rect x="200.0"      y="180.0"      width="20.0"      height="20.0"     fill="#f19dfc" />
  <rect x="220.0"      y="180.0"      width="20.0"      height="20.0"     fill="#f19dfc" />
  <rect x="240.0"      y="180.0"      width="20.0"      height="20.0"     fill="#f19dfc" />
  <rect x="260.0"      y="180.0"      width="20.0"      height="20.0"     fill="#f19dfc" />
  <rect x="280.0"      y="180.0"      width="20.0"      height="20.0"     fill="#f8c4ff" />
  <rect x="300.0"      y="180.0"      width="20.0"      height="20.0"     fill="#f8c4ff" />
  <rect x="220.0"      y="200.0"      width="20.0"      height="20.0"     fill="#f19dfc" />
  <rect x="240.0"      y="200.0"      width="20.0"      height="20.0"     fill="#f19dfc" />
  <rect x="260.0"      y="200.0"      width="20.0"      height="20.0"     fill="#f19dfc" />
  <rect x="280.0"      y="200.0"      width="20.0"      height="20.0"     fill="#f8c4ff" />
  <rect x="300.0"      y="200.0"      width="20.0"      height="20.0"     fill="#f8c4ff" />
  <rect x="320.0"      y="200.0"      width="20.0"      height="20.0"     fill="#f8c4ff" />
  <rect x="340.0"      y="200.0"      width="20.0"      height="20.0"     fill="#f8c4ff" />
  <rect x="360.0"      y="200.0"      width="20.0"      height="20.0"     fill="#f8c4ff" />
  <rect x="380.0"      y="200.0"      width="20.0"      height="20.0"     fill="#ffcb58" />
  <rect x="400.0"      y="200.0"      width="20.0"      height="20.0"     fill="#f8c4ff" />
  <rect x="420.0"      y="200.0"      width="20.0"      height="20.0"     fill="#c4d6ff" />
  <rect x="220.0"      y="220.0"      width="20.0"      height="20.0"     fill="#5893ff" />
  <rect x="240.0"      y="220.0"      width="20.0"      height="20.0"     fill="#f19dfc" />
  <rect x="260.0"      y="220.0"      width="20.0"      height="20.0"     fill="#f19dfc" />
  <rect x="280.0"      y="220.0"      width="20.0"      height="20.0"     fill="#f19dfc" />
  <rect x="300.0"      y="220.0"      width="20.0"      height="20.0"     fill="#f8c4ff" />
  <rect x="320.0"      y="220.0"      width="20.0"      height="20.0"     fill="#f8c4ff" />
  <rect x="340.0"      y="220.0"      width="20.0"      height="20.0"     fill="#f8c4ff" />
  <rect x="360.0"      y="220.0"      width="20.0"      height="20.0"     fill="#f8c4ff" />
  <rect x="380.0"      y="220.0"      width="20.0"      height="20.0"     fill="#f8c4ff" />
  <rect x="400.0"      y="220.0"      width="20.0"      height="20.0"     fill="#ffcb58" />
  <rect x="420.0"      y="220.0"      width="20.0"      height="20.0"     fill="#f8c4ff" />
  <rect x="440.0"      y="220.0"      width="20.0"      height="20.0"     fill="#c4d6ff" />
  <rect x="460.0"      y="220.0"      width="20.0"      height="20.0"     fill="#c4d6ff" />
  <rect x="240.0"      y="240.0"      width="20.0"      height="20.0"     fill="#5893ff" />
  <rect x="260.0"      y="240.0"      width="20.0"      height="20.0"     fill="#5893ff" />
  <rect x="280.0"      y="240.0"      width="20.0"      height="20.0"     fill="#f19dfc" />
  <rect x="300.0"      y="240.0"      width="20.0"      height="20.0"     fill="#f8c4ff" />
  <rect x="320.0"      y="240.0"      width="20.0"      height="20.0"     fill="#f8c4ff" />
  <rect x="340.0"      y="240.0"      width="20.0"      height="20.0"     fill="#f8c4ff" />
  <rect x="360.0"      y="240.0"      width="20.0"      height="20.0"     fill="#f8c4ff" />
  <rect x="380.0"      y="240.0"      width="20.0"      height="20.0"     fill="#f8c4ff" />
  <rect x="400.0"      y="240.0"      width="20.0"      height="20.0"     fill="#f8c4ff" />
  <rect x="420.0"      y="240.0"      width="20.0"      height="20.0"     fill="#f8c4ff" />
  <rect x="440.0"      y="240.0"      width="20.0"      height="20.0"     fill="#ffcb58" />
  <rect x="460.0"      y="240.0"      width="20.0"      height="20.0"     fill="#ffcb58" />
  <rect x="480.0"      y="240.0"      width="20.0"      height="20.0"     fill="#c4d6ff" />
  <rect x="240.0"      y="260.0"      width="20.0"      height="20.0"     fill="#5893ff" />
  <rect x="260.0"      y="260.0"      width="20.0"      height="20.0"     fill="#5893ff" />
  <rect x="280.0"      y="260.0"      width="20.0"      height="20.0"     fill="#f19dfc" />
  <rect x="300.0"      y="260.0"      width="20.0"      height="20.0"     fill="#f8c4ff" />
  <rect x="320.0"      y="260.0"      width="20.0"      height="20.0"     fill="#f8c4ff" />
  <rect x="340.0"      y="260.0"      width="20.0"      height="20.0"     fill="#f8c4ff" />
  <rect x="360.0"      y="260.0"      width="20.0"      height="20.0"     fill="#f8c4ff" />
  <rect x="380.0"      y="260.0"      width="20.0"      height="20.0"     fill="#f8c4ff" />
  <rect x="400.0"      y="260.0"      width="20.0"      height="20.0"     fill="#f8c4ff" />
  <rect x="420.0"      y="260.0"      width="20.0"      height="20.0"     fill="#f8c4ff" />
  <rect x="440.0"      y="260.0"      width="20.0"      height="20.0"     fill="#ffcb58" />
  <rect x="460.0"      y="260.0"      width="20.0"      height="20.0"     fill="#ffcb58" />
  <rect x="480.0"      y="260.0"      width="20.0"      height="20.0"     fill="#c4d6ff" />
  <rect x="280.0"      y="280.0"      width="20.0"      height="20.0"     fill="#f8c4ff" />
  <rect x="300.0"      y="280.0"      width="20.0"      height="20.0"     fill="#f8c4ff" />
  <rect x="320.0"      y="280.0"      width="20.0"      height="20.0"     fill="#f8c4ff" />
  <rect x="340.0"      y="280.0"      width="20.0"      height="20.0"     fill="#f8c4ff" />
  <rect x="360.0"      y="280.0"      width="20.0"      height="20.0"     fill="#f8c4ff" />
  <rect x="380.0"      y="280.0"      width="20.0"      height="20.0"     fill="#f8c4ff" />
  <rect x="400.0"      y="280.0"      width="20.0"      height="20.0"     fill="#f8c4ff" />
  <rect x="420.0"      y="280.0"      width="20.0"      height="20.0"     fill="#f8c4ff" />
  <rect x="440.0"      y="280.0"      width="20.0"      height="20.0"     fill="#f8c4ff" />
  <rect x="460.0"      y="280.0"      width="20.0"      height="20.0"     fill="#f8c4ff" />
  <rect x="480.0"      y="280.0"      width="20.0"      height="20.0"     fill="#f8c4ff" />
  <rect x="500.0"      y="280.0"      width="20.0"      height="20.0"     fill="#c4d6ff" />
  <rect x="280.0"      y="300.0"      width="20.0"      height="20.0"     fill="#f8c4ff" />
  <rect x="300.0"      y="300.0"      width="20.0"      height="20.0"     fill="#f8c4ff" />
  <rect x="320.0"      y="300.0"      width="20.0"      height="20.0"     fill="#f8c4ff" />
  <rect x="340.0"      y="300.0"      width="20.0"      height="20.0"     fill="#f8c4ff" />
  <rect x="360.0"      y="300.0"      width="20.0"      height="20.0"     fill="#f8c4ff" />
  <rect x="380.0"      y="300.0"      width="20.0"      height="20.0"     fill="#f8c4ff" />
  <rect x="400.0"      y="300.0"      width="20.0"      height="20.0"     fill="#f8c4ff" />
  <rect x="420.0"      y="300.0"      width="20.0"      height="20.0"     fill="#f8c4ff" />
  <rect x="440.0"      y="300.0"      width="20.0"      height="20.0"     fill="#f8c4ff" />
  <rect x="460.0"      y="300.0"      width="20.0"      height="20.0"     fill="#f8c4ff" />
  <rect x="480.0"      y="300.0"      width="20.0"      height="20.0"     fill="#f8c4ff" />
  <rect x="500.0"      y="300.0"      width="20.0"      height="20.0"     fill="#ffcb58" />
  <rect x="240.0"      y="320.0"      width="20.0"      height="20.0"     fill="#f8c4ff" />
  <rect x="260.0"      y="320.0"      width="20.0"      height="20.0"     fill="#f8c4ff" />
  <rect x="280.0"      y="320.0"      width="20.0"      height="20.0"     fill="#f8c4ff" />
  <rect x="300.0"      y="320.0"      width="20.0"      height="20.0"     fill="#f8c4ff" />
  <rect x="320.0"      y="320.0"      width="20.0"      height="20.0"     fill="#f8c4ff" />
  <rect x="340.0"      y="320.0"      width="20.0"      height="20.0"     fill="#f8c4ff" />
  <rect x="360.0"      y="320.0"      width="20.0"      height="20.0"     fill="#f8c4ff" />
  <rect x="380.0"      y="320.0"      width="20.0"      height="20.0"     fill="#f8c4ff" />
  <rect x="400.0"      y="320.0"      width="20.0"      height="20.0"     fill="#f8c4ff" />
  <rect x="420.0"      y="320.0"      width="20.0"      height="20.0"     fill="#f8c4ff" />
  <rect x="440.0"      y="320.0"      width="20.0"      height="20.0"     fill="#f8c4ff" />
  <rect x="460.0"      y="320.0"      width="20.0"      height="20.0"     fill="#f8c4ff" />
  <rect x="480.0"      y="320.0"      width="20.0"      height="20.0"     fill="#f8c4ff" />
  <rect x="500.0"      y="320.0"      width="20.0"      height="20.0"     fill="#c4d6ff" />
  <rect x="520.0"      y="320.0"      width="20.0"      height="20.0"     fill="#ffcb58" />
  <rect x="240.0"      y="340.0"      width="20.0"      height="20.0"     fill="#f8c4ff" />
  <rect x="260.0"      y="340.0"      width="20.0"      height="20.0"     fill="#f8c4ff" />
  <rect x="280.0"      y="340.0"      width="20.0"      height="20.0"     fill="#00146f" />
  <rect x="300.0"      y="340.0"      width="20.0"      height="20.0"     fill="#00146f" />
  <rect x="320.0"      y="340.0"      width="20.0"      height="20.0"     fill="#f8c4ff" />
  <rect x="340.0"      y="340.0"      width="20.0"      height="20.0"     fill="#f8c4ff" />
  <rect x="360.0"      y="340.0"      width="20.0"      height="20.0"     fill="#f8c4ff" />
  <rect x="380.0"      y="340.0"      width="20.0"      height="20.0"     fill="#f8c4ff" />
  <rect x="400.0"      y="340.0"      width="20.0"      height="20.0"     fill="#00146f" />
  <rect x="420.0"      y="340.0"      width="20.0"      height="20.0"     fill="#00146f" />
  <rect x="440.0"      y="340.0"      width="20.0"      height="20.0"     fill="#f8c4ff" />
  <rect x="460.0"      y="340.0"      width="20.0"      height="20.0"     fill="#f8c4ff" />
  <rect x="480.0"      y="340.0"      width="20.0"      height="20.0"     fill="#f8c4ff" />
  <rect x="500.0"      y="340.0"      width="20.0"      height="20.0"     fill="#f8c4ff" />
  <rect x="520.0"      y="340.0"      width="20.0"      height="20.0"     fill="#ffcb58" />
  <rect x="540.0"      y="340.0"      width="20.0"      height="20.0"     fill="#ffcb58" />
  <rect x="560.0"      y="340.0"      width="20.0"      height="20.0"     fill="#ffcb58" />
  <rect x="240.0"      y="360.0"      width="20.0"      height="20.0"     fill="#f8c4ff" />
  <rect x="260.0"      y="360.0"      width="20.0"      height="20.0"     fill="#f8c4ff" />
  <rect x="280.0"      y="360.0"      width="20.0"      height="20.0"     fill="#00146f" />
  <rect x="300.0"      y="360.0"      width="20.0"      height="20.0"     fill="#00146f" />
  <rect x="320.0"      y="360.0"      width="20.0"      height="20.0"     fill="#f8c4ff" />
  <rect x="340.0"      y="360.0"      width="20.0"      height="20.0"     fill="#f8c4ff" />
  <rect x="360.0"      y="360.0"      width="20.0"      height="20.0"     fill="#f8c4ff" />
  <rect x="380.0"      y="360.0"      width="20.0"      height="20.0"     fill="#f8c4ff" />
  <rect x="400.0"      y="360.0"      width="20.0"      height="20.0"     fill="#00146f" />
  <rect x="420.0"      y="360.0"      width="20.0"      height="20.0"     fill="#00146f" />
  <rect x="440.0"      y="360.0"      width="20.0"      height="20.0"     fill="#f8c4ff" />
  <rect x="460.0"      y="360.0"      width="20.0"      height="20.0"     fill="#f8c4ff" />
  <rect x="480.0"      y="360.0"      width="20.0"      height="20.0"     fill="#f8c4ff" />
  <rect x="500.0"      y="360.0"      width="20.0"      height="20.0"     fill="#f8c4ff" />
  <rect x="520.0"      y="360.0"      width="20.0"      height="20.0"     fill="#ffcb58" />
  <rect x="540.0"      y="360.0"      width="20.0"      height="20.0"     fill="#ffcb58" />
  <rect x="560.0"      y="360.0"      width="20.0"      height="20.0"     fill="#ffcb58" />
  <rect x="220.0"      y="380.0"      width="20.0"      height="20.0"     fill="#f8c4ff" />
  <rect x="240.0"      y="380.0"      width="20.0"      height="20.0"     fill="#f8c4ff" />
  <rect x="260.0"      y="380.0"      width="20.0"      height="20.0"     fill="#f8c4ff" />
  <rect x="280.0"      y="380.0"      width="20.0"      height="20.0"     fill="#5893ff" />
  <rect x="300.0"      y="380.0"      width="20.0"      height="20.0"     fill="#8600ff" />
  <rect x="320.0"      y="380.0"      width="20.0"      height="20.0"     fill="#f8c4ff" />
  <rect x="340.0"      y="380.0"      width="20.0"      height="20.0"     fill="#f8c4ff" />
  <rect x="360.0"      y="380.0"      width="20.0"      height="20.0"     fill="#f8c4ff" />
  <rect x="380.0"      y="380.0"      width="20.0"      height="20.0"     fill="#f8c4ff" />
  <rect x="400.0"      y="380.0"      width="20.0"      height="20.0"     fill="#8600ff" />
  <rect x="420.0"      y="380.0"      width="20.0"      height="20.0"     fill="#5893ff" />
  <rect x="440.0"      y="380.0"      width="20.0"      height="20.0"     fill="#f8c4ff" />
  <rect x="460.0"      y="380.0"      width="20.0"      height="20.0"     fill="#f8c4ff" />
  <rect x="480.0"      y="380.0"      width="20.0"      height="20.0"     fill="#f19dfc" />
  <rect x="500.0"      y="380.0"      width="20.0"      height="20.0"     fill="#f8c4ff" />
  <rect x="520.0"      y="380.0"      width="20.0"      height="20.0"     fill="#ffcb58" />
  <rect x="540.0"      y="380.0"      width="20.0"      height="20.0"     fill="#c4d6ff" />
  <rect x="560.0"      y="380.0"      width="20.0"      height="20.0"     fill="#c4d6ff" />
  <rect x="220.0"      y="400.0"      width="20.0"      height="20.0"     fill="#f8c4ff" />
  <rect x="240.0"      y="400.0"      width="20.0"      height="20.0"     fill="#f19dfc" />
  <rect x="260.0"      y="400.0"      width="20.0"      height="20.0"     fill="#f19dfc" />
  <rect x="280.0"      y="400.0"      width="20.0"      height="20.0"     fill="#f19dfc" />
  <rect x="300.0"      y="400.0"      width="20.0"      height="20.0"     fill="#f19dfc" />
  <rect x="320.0"      y="400.0"      width="20.0"      height="20.0"     fill="#f8c4ff" />
  <rect x="340.0"      y="400.0"      width="20.0"      height="20.0"     fill="#f19dfc" />
  <rect x="360.0"      y="400.0"      width="20.0"      height="20.0"     fill="#f19dfc" />
  <rect x="380.0"      y="400.0"      width="20.0"      height="20.0"     fill="#c4d6ff" />
  <rect x="400.0"      y="400.0"      width="20.0"      height="20.0"     fill="#f19dfc" />
  <rect x="420.0"      y="400.0"      width="20.0"      height="20.0"     fill="#f19dfc" />
  <rect x="440.0"      y="400.0"      width="20.0"      height="20.0"     fill="#f19dfc" />
  <rect x="460.0"      y="400.0"      width="20.0"      height="20.0"     fill="#f19dfc" />
  <rect x="480.0"      y="400.0"      width="20.0"      height="20.0"     fill="#f19dfc" />
  <rect x="500.0"      y="400.0"      width="20.0"      height="20.0"     fill="#f19dfc" />
  <rect x="520.0"      y="400.0"      width="20.0"      height="20.0"     fill="#f8c4ff" />
  <rect x="540.0"      y="400.0"      width="20.0"      height="20.0"     fill="#f8c4ff" />
  <rect x="560.0"      y="400.0"      width="20.0"      height="20.0"     fill="#f8c4ff" />
  <rect x="580.0"      y="400.0"      width="20.0"      height="20.0"     fill="#c4d6ff" />
  <rect x="220.0"      y="420.0"      width="20.0"      height="20.0"     fill="#f8c4ff" />
  <rect x="240.0"      y="420.0"      width="20.0"      height="20.0"     fill="#f19dfc" />
  <rect x="260.0"      y="420.0"      width="20.0"      height="20.0"     fill="#f19dfc" />
  <rect x="280.0"      y="420.0"      width="20.0"      height="20.0"     fill="#f19dfc" />
  <rect x="300.0"      y="420.0"      width="20.0"      height="20.0"     fill="#f19dfc" />
  <rect x="320.0"      y="420.0"      width="20.0"      height="20.0"     fill="#f8c4ff" />
  <rect x="340.0"      y="420.0"      width="20.0"      height="20.0"     fill="#f8c4ff" />
  <rect x="360.0"      y="420.0"      width="20.0"      height="20.0"     fill="#f8c4ff" />
  <rect x="380.0"      y="420.0"      width="20.0"      height="20.0"     fill="#f8c4ff" />
  <rect x="400.0"      y="420.0"      width="20.0"      height="20.0"     fill="#f19dfc" />
  <rect x="420.0"      y="420.0"      width="20.0"      height="20.0"     fill="#f19dfc" />
  <rect x="440.0"      y="420.0"      width="20.0"      height="20.0"     fill="#f8c4ff" />
  <rect x="460.0"      y="420.0"      width="20.0"      height="20.0"     fill="#f8c4ff" />
  <rect x="480.0"      y="420.0"      width="20.0"      height="20.0"     fill="#f8c4ff" />
  <rect x="500.0"      y="420.0"      width="20.0"      height="20.0"     fill="#5893ff" />
  <rect x="520.0"      y="420.0"      width="20.0"      height="20.0"     fill="#f19dfc" />
  <rect x="540.0"      y="420.0"      width="20.0"      height="20.0"     fill="#f8c4ff" />
  <rect x="560.0"      y="420.0"      width="20.0"      height="20.0"     fill="#f8c4ff" />
  <rect x="580.0"      y="420.0"      width="20.0"      height="20.0"     fill="#ffcb58" />
  <rect x="240.0"      y="440.0"      width="20.0"      height="20.0"     fill="#f8c4ff" />
  <rect x="260.0"      y="440.0"      width="20.0"      height="20.0"     fill="#f8c4ff" />
  <rect x="280.0"      y="440.0"      width="20.0"      height="20.0"     fill="#f8c4ff" />
  <rect x="300.0"      y="440.0"      width="20.0"      height="20.0"     fill="#f8c4ff" />
  <rect x="320.0"      y="440.0"      width="20.0"      height="20.0"     fill="#f8c4ff" />
  <rect x="340.0"      y="440.0"      width="20.0"      height="20.0"     fill="#f8c4ff" />
  <rect x="360.0"      y="440.0"      width="20.0"      height="20.0"     fill="#f8c4ff" />
  <rect x="380.0"      y="440.0"      width="20.0"      height="20.0"     fill="#f8c4ff" />
  <rect x="400.0"      y="440.0"      width="20.0"      height="20.0"     fill="#f8c4ff" />
  <rect x="420.0"      y="440.0"      width="20.0"      height="20.0"     fill="#f8c4ff" />
  <rect x="440.0"      y="440.0"      width="20.0"      height="20.0"     fill="#f8c4ff" />
  <rect x="460.0"      y="440.0"      width="20.0"      height="20.0"     fill="#f8c4ff" />
  <rect x="480.0"      y="440.0"      width="20.0"      height="20.0"     fill="#f8c4ff" />
  <rect x="500.0"      y="440.0"      width="20.0"      height="20.0"     fill="#f19dfc" />
  <rect x="520.0"      y="440.0"      width="20.0"      height="20.0"     fill="#5893ff" />
  <rect x="540.0"      y="440.0"      width="20.0"      height="20.0"     fill="#f8c4ff" />
  <rect x="560.0"      y="440.0"      width="20.0"      height="20.0"     fill="#f8c4ff" />
  <rect x="580.0"      y="440.0"      width="20.0"      height="20.0"     fill="#c4d6ff" />
  <rect x="240.0"      y="460.0"      width="20.0"      height="20.0"     fill="#f8c4ff" />
  <rect x="260.0"      y="460.0"      width="20.0"      height="20.0"     fill="#f8c4ff" />
  <rect x="280.0"      y="460.0"      width="20.0"      height="20.0"     fill="#f8c4ff" />
  <rect x="300.0"      y="460.0"      width="20.0"      height="20.0"     fill="#f8c4ff" />
  <rect x="320.0"      y="460.0"      width="20.0"      height="20.0"     fill="#f8c4ff" />
  <rect x="340.0"      y="460.0"      width="20.0"      height="20.0"     fill="#f8c4ff" />
  <rect x="360.0"      y="460.0"      width="20.0"      height="20.0"     fill="#f8c4ff" />
  <rect x="380.0"      y="460.0"      width="20.0"      height="20.0"     fill="#f8c4ff" />
  <rect x="400.0"      y="460.0"      width="20.0"      height="20.0"     fill="#f8c4ff" />
  <rect x="420.0"      y="460.0"      width="20.0"      height="20.0"     fill="#f8c4ff" />
  <rect x="440.0"      y="460.0"      width="20.0"      height="20.0"     fill="#f8c4ff" />
  <rect x="460.0"      y="460.0"      width="20.0"      height="20.0"     fill="#f8c4ff" />
  <rect x="480.0"      y="460.0"      width="20.0"      height="20.0"     fill="#f8c4ff" />
  <rect x="500.0"      y="460.0"      width="20.0"      height="20.0"     fill="#f19dfc" />
  <rect x="520.0"      y="460.0"      width="20.0"      height="20.0"     fill="#5893ff" />
  <rect x="540.0"      y="460.0"      width="20.0"      height="20.0"     fill="#f8c4ff" />
  <rect x="560.0"      y="460.0"      width="20.0"      height="20.0"     fill="#f8c4ff" />
  <rect x="580.0"      y="460.0"      width="20.0"      height="20.0"     fill="#c4d6ff" />
  <rect x="220.0"      y="480.0"      width="20.0"      height="20.0"     fill="#c4d6ff" />
  <rect x="240.0"      y="480.0"      width="20.0"      height="20.0"     fill="#f8c4ff" />
  <rect x="260.0"      y="480.0"      width="20.0"      height="20.0"     fill="#f8c4ff" />
  <rect x="280.0"      y="480.0"      width="20.0"      height="20.0"     fill="#f8c4ff" />
  <rect x="300.0"      y="480.0"      width="20.0"      height="20.0"     fill="#f8c4ff" />
  <rect x="320.0"      y="480.0"      width="20.0"      height="20.0"     fill="#f8c4ff" />
  <rect x="340.0"      y="480.0"      width="20.0"      height="20.0"     fill="#f8c4ff" />
  <rect x="360.0"      y="480.0"      width="20.0"      height="20.0"     fill="#f8c4ff" />
  <rect x="380.0"      y="480.0"      width="20.0"      height="20.0"     fill="#f8c4ff" />
  <rect x="400.0"      y="480.0"      width="20.0"      height="20.0"     fill="#f8c4ff" />
  <rect x="420.0"      y="480.0"      width="20.0"      height="20.0"     fill="#f8c4ff" />
  <rect x="440.0"      y="480.0"      width="20.0"      height="20.0"     fill="#f8c4ff" />
  <rect x="460.0"      y="480.0"      width="20.0"      height="20.0"     fill="#f8c4ff" />
  <rect x="480.0"      y="480.0"      width="20.0"      height="20.0"     fill="#c4d6ff" />
  <rect x="540.0"      y="480.0"      width="20.0"      height="20.0"     fill="#c4d6ff" />
  <rect x="560.0"      y="480.0"      width="20.0"      height="20.0"     fill="#c4d6ff" />
  <rect x="580.0"      y="480.0"      width="20.0"      height="20.0"     fill="#ffcb58" />
  <rect x="220.0"      y="500.0"      width="20.0"      height="20.0"     fill="#c4d6ff" />
  <rect x="240.0"      y="500.0"      width="20.0"      height="20.0"     fill="#f8c4ff" />
  <rect x="260.0"      y="500.0"      width="20.0"      height="20.0"     fill="#f8c4ff" />
  <rect x="280.0"      y="500.0"      width="20.0"      height="20.0"     fill="#f8c4ff" />
  <rect x="300.0"      y="500.0"      width="20.0"      height="20.0"     fill="#f8c4ff" />
  <rect x="320.0"      y="500.0"      width="20.0"      height="20.0"     fill="#f8c4ff" />
  <rect x="340.0"      y="500.0"      width="20.0"      height="20.0"     fill="#f8c4ff" />
  <rect x="360.0"      y="500.0"      width="20.0"      height="20.0"     fill="#f8c4ff" />
  <rect x="380.0"      y="500.0"      width="20.0"      height="20.0"     fill="#f8c4ff" />
  <rect x="400.0"      y="500.0"      width="20.0"      height="20.0"     fill="#f8c4ff" />
  <rect x="420.0"      y="500.0"      width="20.0"      height="20.0"     fill="#f8c4ff" />
  <rect x="440.0"      y="500.0"      width="20.0"      height="20.0"     fill="#f8c4ff" />
  <rect x="460.0"      y="500.0"      width="20.0"      height="20.0"     fill="#f8c4ff" />
  <rect x="480.0"      y="500.0"      width="20.0"      height="20.0"     fill="#f8c4ff" />
  <rect x="500.0"      y="500.0"      width="20.0"      height="20.0"     fill="#c4d6ff" />
  <rect x="200.0"      y="520.0"      width="20.0"      height="20.0"     fill="#ffcb58" />
  <rect x="220.0"      y="520.0"      width="20.0"      height="20.0"     fill="#f8c4ff" />
  <rect x="240.0"      y="520.0"      width="20.0"      height="20.0"     fill="#f8c4ff" />
  <rect x="260.0"      y="520.0"      width="20.0"      height="20.0"     fill="#f8c4ff" />
  <rect x="280.0"      y="520.0"      width="20.0"      height="20.0"     fill="#f8c4ff" />
  <rect x="300.0"      y="520.0"      width="20.0"      height="20.0"     fill="#f8c4ff" />
  <rect x="320.0"      y="520.0"      width="20.0"      height="20.0"     fill="#f8c4ff" />
  <rect x="340.0"      y="520.0"      width="20.0"      height="20.0"     fill="#f8c4ff" />
  <rect x="360.0"      y="520.0"      width="20.0"      height="20.0"     fill="#f8c4ff" />
  <rect x="380.0"      y="520.0"      width="20.0"      height="20.0"     fill="#f8c4ff" />
  <rect x="400.0"      y="520.0"      width="20.0"      height="20.0"     fill="#f8c4ff" />
  <rect x="420.0"      y="520.0"      width="20.0"      height="20.0"     fill="#f8c4ff" />
  <rect x="440.0"      y="520.0"      width="20.0"      height="20.0"     fill="#f8c4ff" />
  <rect x="460.0"      y="520.0"      width="20.0"      height="20.0"     fill="#f8c4ff" />
  <rect x="480.0"      y="520.0"      width="20.0"      height="20.0"     fill="#f8c4ff" />
  <rect x="500.0"      y="520.0"      width="20.0"      height="20.0"     fill="#f8c4ff" />
  <rect x="520.0"      y="520.0"      width="20.0"      height="20.0"     fill="#c4d6ff" />
  <rect x="200.0"      y="540.0"      width="20.0"      height="20.0"     fill="#c4d6ff" />
  <rect x="220.0"      y="540.0"      width="20.0"      height="20.0"     fill="#f8c4ff" />
  <rect x="240.0"      y="540.0"      width="20.0"      height="20.0"     fill="#f8c4ff" />
  <rect x="260.0"      y="540.0"      width="20.0"      height="20.0"     fill="#f8c4ff" />
  <rect x="280.0"      y="540.0"      width="20.0"      height="20.0"     fill="#f8c4ff" />
  <rect x="300.0"      y="540.0"      width="20.0"      height="20.0"     fill="#f8c4ff" />
  <rect x="320.0"      y="540.0"      width="20.0"      height="20.0"     fill="#f8c4ff" />
  <rect x="340.0"      y="540.0"      width="20.0"      height="20.0"     fill="#f8c4ff" />
  <rect x="360.0"      y="540.0"      width="20.0"      height="20.0"     fill="#f8c4ff" />
  <rect x="380.0"      y="540.0"      width="20.0"      height="20.0"     fill="#f8c4ff" />
  <rect x="400.0"      y="540.0"      width="20.0"      height="20.0"     fill="#f8c4ff" />
  <rect x="420.0"      y="540.0"      width="20.0"      height="20.0"     fill="#f8c4ff" />
  <rect x="440.0"      y="540.0"      width="20.0"      height="20.0"     fill="#f8c4ff" />
  <rect x="460.0"      y="540.0"      width="20.0"      height="20.0"     fill="#f8c4ff" />
  <rect x="480.0"      y="540.0"      width="20.0"      height="20.0"     fill="#f8c4ff" />
  <rect x="500.0"      y="540.0"      width="20.0"      height="20.0"     fill="#f8c4ff" />
  <rect x="520.0"      y="540.0"      width="20.0"      height="20.0"     fill="#f8c4ff" />
  <rect x="540.0"      y="540.0"      width="20.0"      height="20.0"     fill="#c4d6ff" />
  <rect x="560.0"      y="540.0"      width="20.0"      height="20.0"     fill="#c4d6ff" />
  <rect x="200.0"      y="560.0"      width="20.0"      height="20.0"     fill="#c4d6ff" />
  <rect x="220.0"      y="560.0"      width="20.0"      height="20.0"     fill="#f8c4ff" />
  <rect x="240.0"      y="560.0"      width="20.0"      height="20.0"     fill="#f8c4ff" />
  <rect x="260.0"      y="560.0"      width="20.0"      height="20.0"     fill="#f8c4ff" />
  <rect x="280.0"      y="560.0"      width="20.0"      height="20.0"     fill="#f8c4ff" />
  <rect x="300.0"      y="560.0"      width="20.0"      height="20.0"     fill="#f8c4ff" />
  <rect x="320.0"      y="560.0"      width="20.0"      height="20.0"     fill="#f8c4ff" />
  <rect x="340.0"      y="560.0"      width="20.0"      height="20.0"     fill="#f8c4ff" />
  <rect x="360.0"      y="560.0"      width="20.0"      height="20.0"     fill="#f8c4ff" />
  <rect x="380.0"      y="560.0"      width="20.0"      height="20.0"     fill="#f8c4ff" />
  <rect x="400.0"      y="560.0"      width="20.0"      height="20.0"     fill="#f8c4ff" />
  <rect x="420.0"      y="560.0"      width="20.0"      height="20.0"     fill="#f8c4ff" />
  <rect x="440.0"      y="560.0"      width="20.0"      height="20.0"     fill="#f8c4ff" />
  <rect x="460.0"      y="560.0"      width="20.0"      height="20.0"     fill="#f8c4ff" />
  <rect x="480.0"      y="560.0"      width="20.0"      height="20.0"     fill="#f8c4ff" />
  <rect x="500.0"      y="560.0"      width="20.0"      height="20.0"     fill="#f8c4ff" />
  <rect x="520.0"      y="560.0"      width="20.0"      height="20.0"     fill="#f8c4ff" />
  <rect x="540.0"      y="560.0"      width="20.0"      height="20.0"     fill="#c4d6ff" />
  <rect x="560.0"      y="560.0"      width="20.0"      height="20.0"     fill="#c4d6ff" />
  <rect x="180.0"      y="580.0"      width="20.0"      height="20.0"     fill="#c4d6ff" />
  <rect x="200.0"      y="580.0"      width="20.0"      height="20.0"     fill="#ffcb58" />
  <rect x="220.0"      y="580.0"      width="20.0"      height="20.0"     fill="#f8c4ff" />
  <rect x="240.0"      y="580.0"      width="20.0"      height="20.0"     fill="#f8c4ff" />
  <rect x="260.0"      y="580.0"      width="20.0"      height="20.0"     fill="#f8c4ff" />
  <rect x="280.0"      y="580.0"      width="20.0"      height="20.0"     fill="#f8c4ff" />
  <rect x="300.0"      y="580.0"      width="20.0"      height="20.0"     fill="#f8c4ff" />
  <rect x="320.0"      y="580.0"      width="20.0"      height="20.0"     fill="#f8c4ff" />
  <rect x="340.0"      y="580.0"      width="20.0"      height="20.0"     fill="#f8c4ff" />
  <rect x="360.0"      y="580.0"      width="20.0"      height="20.0"     fill="#f8c4ff" />
  <rect x="380.0"      y="580.0"      width="20.0"      height="20.0"     fill="#f8c4ff" />
  <rect x="400.0"      y="580.0"      width="20.0"      height="20.0"     fill="#f8c4ff" />
  <rect x="420.0"      y="580.0"      width="20.0"      height="20.0"     fill="#f8c4ff" />
  <rect x="440.0"      y="580.0"      width="20.0"      height="20.0"     fill="#f8c4ff" />
  <rect x="460.0"      y="580.0"      width="20.0"      height="20.0"     fill="#f8c4ff" />
  <rect x="480.0"      y="580.0"      width="20.0"      height="20.0"     fill="#f8c4ff" />
  <rect x="500.0"      y="580.0"      width="20.0"      height="20.0"     fill="#f8c4ff" />
  <rect x="520.0"      y="580.0"      width="20.0"      height="20.0"     fill="#f8c4ff" />
  <rect x="540.0"      y="580.0"      width="20.0"      height="20.0"     fill="#c4d6ff" />
  <rect x="560.0"      y="580.0"      width="20.0"      height="20.0"     fill="#c4d6ff" />
  <rect x="180.0"      y="600.0"      width="20.0"      height="20.0"     fill="#ffcb58" />
  <rect x="200.0"      y="600.0"      width="20.0"      height="20.0"     fill="#f8c4ff" />
  <rect x="220.0"      y="600.0"      width="20.0"      height="20.0"     fill="#f8c4ff" />
  <rect x="240.0"      y="600.0"      width="20.0"      height="20.0"     fill="#f8c4ff" />
  <rect x="260.0"      y="600.0"      width="20.0"      height="20.0"     fill="#f8c4ff" />
  <rect x="280.0"      y="600.0"      width="20.0"      height="20.0"     fill="#f8c4ff" />
  <rect x="300.0"      y="600.0"      width="20.0"      height="20.0"     fill="#f8c4ff" />
  <rect x="320.0"      y="600.0"      width="20.0"      height="20.0"     fill="#f8c4ff" />
  <rect x="340.0"      y="600.0"      width="20.0"      height="20.0"     fill="#f8c4ff" />
  <rect x="360.0"      y="600.0"      width="20.0"      height="20.0"     fill="#f8c4ff" />
  <rect x="380.0"      y="600.0"      width="20.0"      height="20.0"     fill="#f8c4ff" />
  <rect x="400.0"      y="600.0"      width="20.0"      height="20.0"     fill="#f8c4ff" />
  <rect x="420.0"      y="600.0"      width="20.0"      height="20.0"     fill="#f8c4ff" />
  <rect x="440.0"      y="600.0"      width="20.0"      height="20.0"     fill="#f8c4ff" />
  <rect x="460.0"      y="600.0"      width="20.0"      height="20.0"     fill="#f8c4ff" />
  <rect x="480.0"      y="600.0"      width="20.0"      height="20.0"     fill="#f8c4ff" />
  <rect x="500.0"      y="600.0"      width="20.0"      height="20.0"     fill="#f8c4ff" />
  <rect x="520.0"      y="600.0"      width="20.0"      height="20.0"     fill="#f8c4ff" />
  <rect x="540.0"      y="600.0"      width="20.0"      height="20.0"     fill="#c4d6ff" />
  <rect x="560.0"      y="600.0"      width="20.0"      height="20.0"     fill="#c4d6ff" />
  <rect x="180.0"      y="620.0"      width="20.0"      height="20.0"     fill="#c4d6ff" />
  <rect x="200.0"      y="620.0"      width="20.0"      height="20.0"     fill="#f8c4ff" />
  <rect x="220.0"      y="620.0"      width="20.0"      height="20.0"     fill="#f8c4ff" />
  <rect x="240.0"      y="620.0"      width="20.0"      height="20.0"     fill="#f8c4ff" />
  <rect x="260.0"      y="620.0"      width="20.0"      height="20.0"     fill="#f8c4ff" />
  <rect x="280.0"      y="620.0"      width="20.0"      height="20.0"     fill="#f8c4ff" />
  <rect x="300.0"      y="620.0"      width="20.0"      height="20.0"     fill="#f8c4ff" />
  <rect x="320.0"      y="620.0"      width="20.0"      height="20.0"     fill="#f8c4ff" />
  <rect x="340.0"      y="620.0"      width="20.0"      height="20.0"     fill="#f8c4ff" />
  <rect x="360.0"      y="620.0"      width="20.0"      height="20.0"     fill="#f8c4ff" />
  <rect x="380.0"      y="620.0"      width="20.0"      height="20.0"     fill="#f8c4ff" />
  <rect x="400.0"      y="620.0"      width="20.0"      height="20.0"     fill="#f8c4ff" />
  <rect x="420.0"      y="620.0"      width="20.0"      height="20.0"     fill="#f8c4ff" />
  <rect x="440.0"      y="620.0"      width="20.0"      height="20.0"     fill="#f8c4ff" />
  <rect x="460.0"      y="620.0"      width="20.0"      height="20.0"     fill="#f8c4ff" />
  <rect x="480.0"      y="620.0"      width="20.0"      height="20.0"     fill="#f8c4ff" />
  <rect x="500.0"      y="620.0"      width="20.0"      height="20.0"     fill="#f8c4ff" />
  <rect x="520.0"      y="620.0"      width="20.0"      height="20.0"     fill="#f8c4ff" />
  <rect x="540.0"      y="620.0"      width="20.0"      height="20.0"     fill="#c4d6ff" />
  <rect x="560.0"      y="620.0"      width="20.0"      height="20.0"     fill="#c4d6ff" />
  <rect x="180.0"      y="640.0"      width="20.0"      height="20.0"     fill="#ffcb58" />
  <rect x="200.0"      y="640.0"      width="20.0"      height="20.0"     fill="#f8c4ff" />
  <rect x="220.0"      y="640.0"      width="20.0"      height="20.0"     fill="#f8c4ff" />
  <rect x="240.0"      y="640.0"      width="20.0"      height="20.0"     fill="#f8c4ff" />
  <rect x="260.0"      y="640.0"      width="20.0"      height="20.0"     fill="#f8c4ff" />
  <rect x="280.0"      y="640.0"      width="20.0"      height="20.0"     fill="#f19dfc" />
  <rect x="300.0"      y="640.0"      width="20.0"      height="20.0"     fill="#f8c4ff" />
  <rect x="320.0"      y="640.0"      width="20.0"      height="20.0"     fill="#f8c4ff" />
  <rect x="340.0"      y="640.0"      width="20.0"      height="20.0"     fill="#f8c4ff" />
  <rect x="360.0"      y="640.0"      width="20.0"      height="20.0"     fill="#f8c4ff" />
  <rect x="380.0"      y="640.0"      width="20.0"      height="20.0"     fill="#f8c4ff" />
  <rect x="400.0"      y="640.0"      width="20.0"      height="20.0"     fill="#f8c4ff" />
  <rect x="420.0"      y="640.0"      width="20.0"      height="20.0"     fill="#f8c4ff" />
  <rect x="440.0"      y="640.0"      width="20.0"      height="20.0"     fill="#f8c4ff" />
  <rect x="460.0"      y="640.0"      width="20.0"      height="20.0"     fill="#f8c4ff" />
  <rect x="480.0"      y="640.0"      width="20.0"      height="20.0"     fill="#f8c4ff" />
  <rect x="500.0"      y="640.0"      width="20.0"      height="20.0"     fill="#f8c4ff" />
  <rect x="520.0"      y="640.0"      width="20.0"      height="20.0"     fill="#f8c4ff" />
  <rect x="540.0"      y="640.0"      width="20.0"      height="20.0"     fill="#c4d6ff" />
  <rect x="560.0"      y="640.0"      width="20.0"      height="20.0"     fill="#c4d6ff" />
  <rect x="180.0"      y="660.0"      width="20.0"      height="20.0"     fill="#ffcb58" />
  <rect x="200.0"      y="660.0"      width="20.0"      height="20.0"     fill="#f8c4ff" />
  <rect x="220.0"      y="660.0"      width="20.0"      height="20.0"     fill="#f8c4ff" />
  <rect x="240.0"      y="660.0"      width="20.0"      height="20.0"     fill="#f8c4ff" />
  <rect x="260.0"      y="660.0"      width="20.0"      height="20.0"     fill="#f8c4ff" />
  <rect x="280.0"      y="660.0"      width="20.0"      height="20.0"     fill="#f19dfc" />
  <rect x="300.0"      y="660.0"      width="20.0"      height="20.0"     fill="#f8c4ff" />
  <rect x="320.0"      y="660.0"      width="20.0"      height="20.0"     fill="#f8c4ff" />
  <rect x="340.0"      y="660.0"      width="20.0"      height="20.0"     fill="#f8c4ff" />
  <rect x="360.0"      y="660.0"      width="20.0"      height="20.0"     fill="#f8c4ff" />
  <rect x="380.0"      y="660.0"      width="20.0"      height="20.0"     fill="#f8c4ff" />
  <rect x="400.0"      y="660.0"      width="20.0"      height="20.0"     fill="#f8c4ff" />
  <rect x="420.0"      y="660.0"      width="20.0"      height="20.0"     fill="#f8c4ff" />
  <rect x="440.0"      y="660.0"      width="20.0"      height="20.0"     fill="#f8c4ff" />
  <rect x="460.0"      y="660.0"      width="20.0"      height="20.0"     fill="#f8c4ff" />
  <rect x="480.0"      y="660.0"      width="20.0"      height="20.0"     fill="#f8c4ff" />
  <rect x="500.0"      y="660.0"      width="20.0"      height="20.0"     fill="#f8c4ff" />
  <rect x="520.0"      y="660.0"      width="20.0"      height="20.0"     fill="#f8c4ff" />
  <rect x="540.0"      y="660.0"      width="20.0"      height="20.0"     fill="#c4d6ff" />
  <rect x="560.0"      y="660.0"      width="20.0"      height="20.0"     fill="#c4d6ff" />
  <rect x="180.0"      y="680.0"      width="20.0"      height="20.0"     fill="#c4d6ff" />
  <rect x="200.0"      y="680.0"      width="20.0"      height="20.0"     fill="#f8c4ff" />
  <rect x="220.0"      y="680.0"      width="20.0"      height="20.0"     fill="#f8c4ff" />
  <rect x="240.0"      y="680.0"      width="20.0"      height="20.0"     fill="#f8c4ff" />
  <rect x="260.0"      y="680.0"      width="20.0"      height="20.0"     fill="#f8c4ff" />
  <rect x="280.0"      y="680.0"      width="20.0"      height="20.0"     fill="#f19dfc" />
  <rect x="300.0"      y="680.0"      width="20.0"      height="20.0"     fill="#f8c4ff" />
  <rect x="320.0"      y="680.0"      width="20.0"      height="20.0"     fill="#f8c4ff" />
  <rect x="340.0"      y="680.0"      width="20.0"      height="20.0"     fill="#f8c4ff" />
  <rect x="360.0"      y="680.0"      width="20.0"      height="20.0"     fill="#f8c4ff" />
  <rect x="380.0"      y="680.0"      width="20.0"      height="20.0"     fill="#f19dfc" />
  <rect x="400.0"      y="680.0"      width="20.0"      height="20.0"     fill="#f8c4ff" />
  <rect x="420.0"      y="680.0"      width="20.0"      height="20.0"     fill="#f8c4ff" />
  <rect x="440.0"      y="680.0"      width="20.0"      height="20.0"     fill="#f8c4ff" />
  <rect x="460.0"      y="680.0"      width="20.0"      height="20.0"     fill="#f8c4ff" />
  <rect x="480.0"      y="680.0"      width="20.0"      height="20.0"     fill="#f19dfc" />
  <rect x="500.0"      y="680.0"      width="20.0"      height="20.0"     fill="#f8c4ff" />
  <rect x="520.0"      y="680.0"      width="20.0"      height="20.0"     fill="#f8c4ff" />
  <rect x="540.0"      y="680.0"      width="20.0"      height="20.0"     fill="#f8c4ff" />
  <rect x="560.0"      y="680.0"      width="20.0"      height="20.0"     fill="#f8c4ff" />
  <rect x="580.0"      y="680.0"      width="20.0"      height="20.0"     fill="#f19dfc" />
  <rect x="600.0"      y="680.0"      width="20.0"      height="20.0"     fill="#f19dfc" />
  <rect x="620.0"      y="680.0"      width="20.0"      height="20.0"     fill="#f19dfc" />
  <rect x="180.0"      y="700.0"      width="20.0"      height="20.0"     fill="#c4d6ff" />
  <rect x="200.0"      y="700.0"      width="20.0"      height="20.0"     fill="#ffcb58" />
  <rect x="220.0"      y="700.0"      width="20.0"      height="20.0"     fill="#f8c4ff" />
  <rect x="240.0"      y="700.0"      width="20.0"      height="20.0"     fill="#f8c4ff" />
  <rect x="260.0"      y="700.0"      width="20.0"      height="20.0"     fill="#f8c4ff" />
  <rect x="280.0"      y="700.0"      width="20.0"      height="20.0"     fill="#5893ff" />
  <rect x="300.0"      y="700.0"      width="20.0"      height="20.0"     fill="#f19dfc" />
  <rect x="320.0"      y="700.0"      width="20.0"      height="20.0"     fill="#f8c4ff" />
  <rect x="340.0"      y="700.0"      width="20.0"      height="20.0"     fill="#f19dfc" />
  <rect x="360.0"      y="700.0"      width="20.0"      height="20.0"     fill="#f19dfc" />
  <rect x="380.0"      y="700.0"      width="20.0"      height="20.0"     fill="#5893ff" />
  <rect x="400.0"      y="700.0"      width="20.0"      height="20.0"     fill="#f8c4ff" />
  <rect x="420.0"      y="700.0"      width="20.0"      height="20.0"     fill="#f8c4ff" />
  <rect x="440.0"      y="700.0"      width="20.0"      height="20.0"     fill="#f19dfc" />
  <rect x="460.0"      y="700.0"      width="20.0"      height="20.0"     fill="#f19dfc" />
  <rect x="480.0"      y="700.0"      width="20.0"      height="20.0"     fill="#5893ff" />
  <rect x="500.0"      y="700.0"      width="20.0"      height="20.0"     fill="#f8c4ff" />
  <rect x="520.0"      y="700.0"      width="20.0"      height="20.0"     fill="#f8c4ff" />
  <rect x="540.0"      y="700.0"      width="20.0"      height="20.0"     fill="#f8c4ff" />
  <rect x="560.0"      y="700.0"      width="20.0"      height="20.0"     fill="#f8c4ff" />
  <rect x="580.0"      y="700.0"      width="20.0"      height="20.0"     fill="#f19dfc" />
  <rect x="600.0"      y="700.0"      width="20.0"      height="20.0"     fill="#f19dfc" />
  <rect x="620.0"      y="700.0"      width="20.0"      height="20.0"     fill="#f19dfc" />
  <rect x="200.0"      y="720.0"      width="20.0"      height="20.0"     fill="#c4d6ff" />
  <rect x="220.0"      y="720.0"      width="20.0"      height="20.0"     fill="#f8c4ff" />
  <rect x="240.0"      y="720.0"      width="20.0"      height="20.0"     fill="#f19dfc" />
  <rect x="260.0"      y="720.0"      width="20.0"      height="20.0"     fill="#f19dfc" />
  <rect x="280.0"      y="720.0"      width="20.0"      height="20.0"     fill="#f19dfc" />
  <rect x="300.0"      y="720.0"      width="20.0"      height="20.0"     fill="#5893ff" />
  <rect x="320.0"      y="720.0"      width="20.0"      height="20.0"     fill="#f8c4ff" />
  <rect x="340.0"      y="720.0"      width="20.0"      height="20.0"     fill="#f19dfc" />
  <rect x="360.0"      y="720.0"      width="20.0"      height="20.0"     fill="#f19dfc" />
  <rect x="380.0"      y="720.0"      width="20.0"      height="20.0"     fill="#5893ff" />
  <rect x="400.0"      y="720.0"      width="20.0"      height="20.0"     fill="#f19dfc" />
  <rect x="420.0"      y="720.0"      width="20.0"      height="20.0"     fill="#f8c4ff" />
  <rect x="440.0"      y="720.0"      width="20.0"      height="20.0"     fill="#5893ff" />
  <rect x="460.0"      y="720.0"      width="20.0"      height="20.0"     fill="#5893ff" />
  <rect x="480.0"      y="720.0"      width="20.0"      height="20.0"     fill="#f19dfc" />
  <rect x="500.0"      y="720.0"      width="20.0"      height="20.0"     fill="#f19dfc" />
  <rect x="520.0"      y="720.0"      width="20.0"      height="20.0"     fill="#f8c4ff" />
  <rect x="540.0"      y="720.0"      width="20.0"      height="20.0"     fill="#f8c4ff" />
  <rect x="560.0"      y="720.0"      width="20.0"      height="20.0"     fill="#f8c4ff" />
  <rect x="580.0"      y="720.0"      width="20.0"      height="20.0"     fill="#f19dfc" />
  <rect x="600.0"      y="720.0"      width="20.0"      height="20.0"     fill="#f19dfc" />
</svg>